<svg width="861" height="300" viewBox="0 0 861 300" fill="none" xmlns="http://www.w3.org/2000/svg">
<rect x="100" y="100" width="100" height="100" fill="#F7F7F7"/>
<rect x="212.5" y="12.5" width="75" height="75" stroke="#F7F7F7" stroke-width="25"/>
<rect x="12.5" y="12.5" width="75" height="75" stroke="#F7F7F7" stroke-width="25"/>
<rect x="12.5" y="212.5" width="75" height="75" stroke="#F7F7F7" stroke-width="25"/>
<rect x="212.5" y="212.5" width="75" height="75" stroke="#F7F7F7" stroke-width="25"/>
<rect x="62.5" y="62.5" width="175" height="175" stroke="#15181A" stroke-width="25"/>
<path d="M423.68 126.48C422.56 127.6 420.92 128.44 418.76 129C416.68 129.64 414.16 129.96 411.2 129.96C408.24 129.96 405.44 129.52 402.8 128.64C400.16 127.76 398 125.64 396.32 122.28L384.44 98.04C383.24 95.56 382.16 93.24 381.2 91.08C380.24 88.84 379.2 86.28 378.08 83.4L377.36 83.52C377.68 87.84 377.84 92.24 377.84 96.72C377.92 101.2 377.96 105.6 377.96 109.92V128.52C377.08 128.76 375.72 129 373.88 129.24C372.12 129.48 370.36 129.6 368.6 129.6C366.84 129.6 365.28 129.48 363.92 129.24C362.56 129 361.44 128.52 360.56 127.8C359.68 127.08 359 126.12 358.52 124.92C358.04 123.64 357.8 122 357.8 120V60C358.92 58.4 360.64 57.2 362.96 56.4C365.28 55.6 367.76 55.2 370.4 55.2C373.36 55.2 376.16 55.68 378.8 56.64C381.52 57.52 383.68 59.6 385.28 62.88L397.28 87.12C398.48 89.6 399.56 91.96 400.52 94.2C401.48 96.36 402.52 98.88 403.64 101.76L404.24 101.64C403.92 97.32 403.72 93 403.64 88.68C403.56 84.36 403.52 80.04 403.52 75.72V56.28C404.4 56.04 405.72 55.8 407.48 55.56C409.32 55.32 411.12 55.2 412.88 55.2C416.4 55.2 419.08 55.84 420.92 57.12C422.76 58.32 423.68 60.88 423.68 64.8V126.48ZM460.245 128.52C459.365 128.76 457.965 129 456.045 129.24C454.205 129.48 452.365 129.6 450.525 129.6C448.685 129.6 447.045 129.44 445.605 129.12C444.245 128.88 443.085 128.4 442.125 127.68C441.165 126.96 440.445 125.96 439.965 124.68C439.485 123.4 439.245 121.72 439.245 119.64V56.28C440.125 56.12 441.525 55.92 443.445 55.68C445.365 55.36 447.205 55.2 448.965 55.2C450.805 55.2 452.405 55.36 453.765 55.68C455.205 55.92 456.405 56.4 457.365 57.12C458.325 57.84 459.045 58.84 459.525 60.12C460.005 61.4 460.245 63.08 460.245 65.16V128.52ZM541.688 126.48C540.568 127.6 538.928 128.44 536.768 129C534.688 129.64 532.168 129.96 529.208 129.96C526.248 129.96 523.448 129.52 520.808 128.64C518.168 127.76 516.008 125.64 514.328 122.28L502.448 98.04C501.248 95.56 500.168 93.24 499.208 91.08C498.248 88.84 497.208 86.28 496.088 83.4L495.368 83.52C495.688 87.84 495.848 92.24 495.848 96.72C495.928 101.2 495.968 105.6 495.968 109.92V128.52C495.088 128.76 493.728 129 491.888 129.24C490.128 129.48 488.368 129.6 486.608 129.6C484.848 129.6 483.288 129.48 481.928 129.24C480.568 129 479.448 128.52 478.568 127.8C477.688 127.08 477.008 126.12 476.528 124.92C476.048 123.64 475.808 122 475.808 120V60C476.928 58.4 478.648 57.2 480.968 56.4C483.288 55.6 485.768 55.2 488.408 55.2C491.368 55.2 494.168 55.68 496.808 56.64C499.528 57.52 501.688 59.6 503.288 62.88L515.288 87.12C516.488 89.6 517.568 91.96 518.528 94.2C519.488 96.36 520.528 98.88 521.648 101.76L522.248 101.64C521.928 97.32 521.728 93 521.648 88.68C521.568 84.36 521.528 80.04 521.528 75.72V56.28C522.408 56.04 523.728 55.8 525.488 55.56C527.328 55.32 529.128 55.2 530.888 55.2C534.408 55.2 537.088 55.84 538.928 57.12C540.768 58.32 541.688 60.88 541.688 64.8V126.48ZM557.253 67.44C557.253 64 558.253 61.28 560.253 59.28C562.253 57.28 564.973 56.28 568.413 56.28H608.013C608.573 57.16 609.053 58.32 609.453 59.76C609.933 61.2 610.173 62.72 610.173 64.32C610.173 67.36 609.493 69.52 608.133 70.8C606.853 72.08 605.133 72.72 602.973 72.72H577.653V83.88H604.653C605.213 84.76 605.693 85.92 606.093 87.36C606.573 88.72 606.813 90.2 606.813 91.8C606.813 94.84 606.173 97 604.893 98.28C603.613 99.56 601.893 100.2 599.733 100.2H577.653V112.8H608.493C609.053 113.68 609.533 114.84 609.933 116.28C610.413 117.72 610.653 119.24 610.653 120.84C610.653 123.88 609.973 126.08 608.613 127.44C607.333 128.72 605.613 129.36 603.453 129.36H568.413C564.973 129.36 562.253 128.36 560.253 126.36C558.253 124.36 557.253 121.64 557.253 118.2V67.44ZM378.44 214.08C374.92 212.88 371.72 211.68 368.84 210.48C365.96 209.2 363.48 207.68 361.4 205.92C359.32 204.16 357.68 202.08 356.48 199.68C355.36 197.2 354.8 194.2 354.8 190.68C354.8 183.88 357.4 178.44 362.6 174.36C367.88 170.28 375.24 168.24 384.68 168.24C388.12 168.24 391.32 168.48 394.28 168.96C397.24 169.44 399.76 170.2 401.84 171.24C404 172.2 405.68 173.48 406.88 175.08C408.08 176.6 408.68 178.4 408.68 180.48C408.68 182.56 408.2 184.36 407.24 185.88C406.28 187.32 405.12 188.56 403.76 189.6C402 188.48 399.64 187.52 396.68 186.72C393.72 185.84 390.48 185.4 386.96 185.4C383.36 185.4 380.72 185.92 379.04 186.96C377.36 187.92 376.52 189.16 376.52 190.68C376.52 191.88 377.04 192.88 378.08 193.68C379.12 194.4 380.68 195.08 382.76 195.72L389.12 197.76C396.64 200.16 402.4 203.24 406.4 207C410.48 210.68 412.52 215.72 412.52 222.12C412.52 228.92 409.84 234.44 404.48 238.68C399.12 242.84 391.24 244.92 380.84 244.92C377.16 244.92 373.72 244.6 370.52 243.96C367.4 243.4 364.64 242.56 362.24 241.44C359.92 240.24 358.08 238.8 356.72 237.12C355.44 235.36 354.8 233.36 354.8 231.12C354.8 228.8 355.48 226.84 356.84 225.24C358.2 223.56 359.68 222.28 361.28 221.4C363.52 223.16 366.24 224.68 369.44 225.96C372.72 227.24 376.28 227.88 380.12 227.88C384.04 227.88 386.8 227.28 388.4 226.08C390 224.88 390.8 223.48 390.8 221.88C390.8 220.28 390.16 219.08 388.88 218.28C387.6 217.4 385.8 216.56 383.48 215.76L378.44 214.08ZM420.763 206.52C420.763 200.28 421.723 194.76 423.643 189.96C425.643 185.16 428.323 181.16 431.683 177.96C435.123 174.68 439.123 172.2 443.683 170.52C448.323 168.84 453.323 168 458.683 168C464.043 168 469.003 168.84 473.563 170.52C478.203 172.2 482.243 174.68 485.683 177.96C489.123 181.16 491.803 185.16 493.723 189.96C495.723 194.76 496.723 200.28 496.723 206.52C496.723 214.36 495.283 221.04 492.403 226.56C489.523 232 485.603 236.28 480.643 239.4C481.843 239.96 483.243 240.56 484.843 241.2C486.523 241.84 488.243 242.48 490.003 243.12C491.843 243.76 493.723 244.36 495.643 244.92C497.563 245.56 499.363 246.12 501.043 246.6C501.123 247.08 501.163 247.48 501.163 247.8C501.163 248.2 501.163 248.56 501.163 248.88C501.163 253.44 499.963 256.76 497.563 258.84C495.243 260.92 492.163 261.96 488.323 261.96C484.643 261.96 480.843 260.92 476.923 258.84C473.003 256.84 469.003 253.92 464.923 250.08L459.643 245.16H458.683C453.243 245.16 448.203 244.32 443.563 242.64C438.923 240.88 434.923 238.36 431.562 235.08C428.203 231.8 425.563 227.76 423.643 222.96C421.723 218.16 420.763 212.68 420.763 206.52ZM442.363 206.52C442.363 213.8 443.843 219.24 446.803 222.84C449.763 226.44 453.723 228.24 458.683 228.24C463.723 228.24 467.723 226.44 470.683 222.84C473.643 219.24 475.123 213.8 475.123 206.52C475.123 199.32 473.643 193.92 470.683 190.32C467.803 186.72 463.843 184.92 458.803 184.92C453.843 184.92 449.843 186.72 446.803 190.32C443.843 193.84 442.363 199.24 442.363 206.52ZM573.412 216.12C573.412 220.44 572.652 224.4 571.132 228C569.692 231.52 567.572 234.56 564.772 237.12C561.972 239.6 558.572 241.52 554.572 242.88C550.572 244.24 546.052 244.92 541.012 244.92C535.972 244.92 531.452 244.24 527.452 242.88C523.452 241.52 520.052 239.6 517.252 237.12C514.452 234.56 512.292 231.52 510.772 228C509.332 224.4 508.612 220.44 508.612 216.12V170.28C509.492 170.12 510.892 169.92 512.812 169.68C514.732 169.36 516.572 169.2 518.332 169.2C520.172 169.2 521.772 169.36 523.132 169.68C524.572 169.92 525.772 170.4 526.732 171.12C527.692 171.84 528.412 172.84 528.892 174.12C529.372 175.4 529.612 177.08 529.612 179.16V215.76C529.612 219.6 530.652 222.6 532.732 224.76C534.892 226.92 537.652 228 541.012 228C544.452 228 547.212 226.92 549.292 224.76C551.372 222.6 552.412 219.6 552.412 215.76V170.28C553.292 170.12 554.692 169.92 556.612 169.68C558.532 169.36 560.372 169.2 562.132 169.2C563.972 169.2 565.572 169.36 566.932 169.68C568.372 169.92 569.572 170.4 570.532 171.12C571.492 171.84 572.212 172.84 572.692 174.12C573.172 175.4 573.412 177.08 573.412 179.16V216.12ZM603.202 172.44C604.562 171.64 606.602 170.88 609.322 170.16C612.122 169.44 614.922 169.08 617.722 169.08C621.722 169.08 625.242 169.68 628.282 170.88C631.402 172 633.402 173.8 634.282 176.28C635.722 180.44 637.282 185.28 638.962 190.8C640.642 196.32 642.322 202.04 644.002 207.96C645.682 213.8 647.322 219.6 648.922 225.36C650.522 231.04 651.922 236.08 653.122 240.48C652.162 241.6 650.722 242.48 648.802 243.12C646.882 243.84 644.602 244.2 641.962 244.2C640.042 244.2 638.402 244.04 637.042 243.72C635.762 243.4 634.682 242.92 633.802 242.28C633.002 241.64 632.322 240.8 631.762 239.76C631.282 238.72 630.842 237.52 630.442 236.16L628.282 227.88H606.562C605.922 230.28 605.282 232.76 604.642 235.32C604.002 237.88 603.362 240.36 602.722 242.76C601.602 243.16 600.402 243.48 599.122 243.72C597.922 244.04 596.442 244.2 594.682 244.2C590.602 244.2 587.562 243.52 585.562 242.16C583.642 240.72 582.682 238.76 582.682 236.28C582.682 235.16 582.842 234.04 583.162 232.92C583.482 231.8 583.842 230.48 584.242 228.96C584.802 226.8 585.562 224.12 586.522 220.92C587.562 217.72 588.682 214.28 589.882 210.6C591.082 206.84 592.362 203 593.722 199.08C595.082 195.16 596.362 191.48 597.562 188.04C598.762 184.52 599.842 181.4 600.802 178.68C601.842 175.96 602.642 173.88 603.202 172.44ZM617.602 187.92C616.482 191.28 615.202 195.04 613.762 199.2C612.402 203.28 611.162 207.44 610.042 211.68H624.922C623.802 207.36 622.642 203.16 621.442 199.08C620.322 194.92 619.282 191.2 618.322 187.92H617.602ZM683.836 219.48V242.52C682.956 242.76 681.556 243 679.636 243.24C677.796 243.48 675.956 243.6 674.116 243.6C672.276 243.6 670.636 243.44 669.196 243.12C667.836 242.88 666.676 242.4 665.716 241.68C664.836 240.96 664.156 239.96 663.676 238.68C663.196 237.4 662.956 235.72 662.956 233.64V177.12C662.956 175.44 663.396 174.16 664.276 173.28C665.236 172.32 666.516 171.56 668.116 171C670.836 170.04 673.996 169.36 677.596 168.96C681.196 168.48 685.036 168.24 689.116 168.24C700.156 168.24 708.476 170.56 714.076 175.2C719.676 179.84 722.476 186.12 722.476 194.04C722.476 199 721.196 203.24 718.636 206.76C716.076 210.28 713.036 213 709.516 214.92C712.396 218.84 715.236 222.52 718.036 225.96C720.836 229.4 723.036 232.52 724.636 235.32C723.836 238.12 722.356 240.28 720.196 241.8C718.116 243.24 715.756 243.96 713.116 243.96C711.356 243.96 709.836 243.76 708.556 243.36C707.276 242.96 706.156 242.4 705.196 241.68C704.236 240.96 703.356 240.08 702.556 239.04C701.756 238 700.996 236.88 700.276 235.68L690.196 219.48H683.836ZM691.396 203.52C694.436 203.52 696.836 202.76 698.596 201.24C700.356 199.64 701.236 197.32 701.236 194.28C701.236 191.24 700.236 188.96 698.236 187.44C696.316 185.84 693.236 185.04 688.996 185.04C687.796 185.04 686.836 185.08 686.116 185.16C685.396 185.24 684.596 185.36 683.716 185.52V203.52H691.396ZM736.081 181.44C736.081 178 737.081 175.28 739.081 173.28C741.081 171.28 743.801 170.28 747.241 170.28H786.841C787.401 171.16 787.881 172.32 788.281 173.76C788.761 175.2 789.001 176.72 789.001 178.32C789.001 181.36 788.321 183.52 786.961 184.8C785.681 186.08 783.961 186.72 781.801 186.72H756.481V197.88H783.481C784.041 198.76 784.521 199.92 784.921 201.36C785.401 202.72 785.641 204.2 785.641 205.8C785.641 208.84 785.001 211 783.721 212.28C782.441 213.56 780.721 214.2 778.561 214.2H756.481V226.8H787.321C787.881 227.68 788.361 228.84 788.761 230.28C789.241 231.72 789.481 233.24 789.481 234.84C789.481 237.88 788.801 240.08 787.441 241.44C786.161 242.72 784.441 243.36 782.281 243.36H747.241C743.801 243.36 741.081 242.36 739.081 240.36C737.081 238.36 736.081 235.64 736.081 232.2V181.44ZM823.049 214.08C819.529 212.88 816.329 211.68 813.449 210.48C810.569 209.2 808.089 207.68 806.009 205.92C803.929 204.16 802.289 202.08 801.089 199.68C799.969 197.2 799.409 194.2 799.409 190.68C799.409 183.88 802.009 178.44 807.209 174.36C812.489 170.28 819.849 168.24 829.289 168.24C832.729 168.24 835.929 168.48 838.889 168.96C841.849 169.44 844.369 170.2 846.449 171.24C848.609 172.2 850.289 173.48 851.489 175.08C852.689 176.6 853.289 178.4 853.289 180.48C853.289 182.56 852.809 184.36 851.849 185.88C850.889 187.32 849.729 188.56 848.369 189.6C846.609 188.48 844.249 187.52 841.289 186.72C838.329 185.84 835.089 185.4 831.569 185.4C827.969 185.4 825.329 185.92 823.649 186.96C821.969 187.92 821.129 189.16 821.129 190.68C821.129 191.88 821.649 192.88 822.689 193.68C823.729 194.4 825.289 195.08 827.369 195.72L833.729 197.76C841.249 200.16 847.009 203.24 851.009 207C855.089 210.68 857.129 215.72 857.129 222.12C857.129 228.92 854.449 234.44 849.089 238.68C843.729 242.84 835.849 244.92 825.449 244.92C821.769 244.92 818.329 244.6 815.129 243.96C812.009 243.4 809.249 242.56 806.849 241.44C804.529 240.24 802.689 238.8 801.329 237.12C800.049 235.36 799.409 233.36 799.409 231.12C799.409 228.8 800.089 226.84 801.449 225.24C802.809 223.56 804.289 222.28 805.889 221.4C808.129 223.16 810.849 224.68 814.049 225.96C817.329 227.24 820.889 227.88 824.729 227.88C828.649 227.88 831.409 227.28 833.009 226.08C834.609 224.88 835.409 223.48 835.409 221.88C835.409 220.28 834.769 219.08 833.489 218.28C832.209 217.4 830.409 216.56 828.089 215.76L823.049 214.08Z" fill="#F7F7F7"/>
</svg>
